<svg xmlns="http://www.w3.org/2000/svg" width="90" height="50">
	<g stroke="#8c85ee" fill="none">
		<rect height="10" width="20" y="10" x="10"/>
		<rect height="10" width="20" y="20" x="10"/>
		<rect height="10" width="20" y="30" x="10"/>
		<rect height="10" width="30" y="10" x="50"/>
		<rect height="10" width="30" y="20" x="50"/>
		<rect height="10" width="30" y="30" x="50"/>
		<rect height="6" width="26" y="12" x="52"/>
		<rect height="6" width="26" y="22" x="52"/>
		<rect height="6" width="26" y="32" x="52"/>
	</g>
	<g stroke="#8c85ee" fill="none">
		<g stroke-dasharray="5,2,2,2,2,2">
			<line y2="15" x2="50" y1="15" x1="30"/>
			<line y2="25" x2="50" y1="25" x1="30"/>
			<line y2="35" x2="50" y1="35" x1="30"/>
		</g>
	</g>
	<g font-family="'Cascadia Mono', 'Consolas', 'Courier New', monospace" font-size="4" stroke="none" fill="#ee858c">
		<text y="16.5" x="53">void ()</text>
		<text y="26.5" x="53">void ()</text>
		<text y="36.5" x="53">void ()</text>
		<text y="7" x="10">queue</text>
		<text y="7" x="50">function</text>
	</g>
</svg>