<svg xmlns="http://www.w3.org/2000/svg" width="156" height="110">
	<g stroke="#8c85ee" fill="none">
		<rect height="30" width="20" y="10" x="10"/>
		<rect height="30" width="20" y="40" x="10"/>
		<rect height="30" width="20" y="70" x="10"/>
		<rect height="6" width="18" y="12" x="32"/>
		<rect height="6" width="18" y="42" x="32"/>
		<rect height="6" width="18" y="72" x="32"/>
		<rect height="6" width="18" y="12" x="50"/>
		<rect height="6" width="18" y="42" x="50"/>
		<rect height="6" width="18" y="72" x="50"/>
		<rect height="6" width="18" y="12" x="68"/>
		<rect height="6" width="18" y="42" x="68"/>
		<rect height="6" width="18" y="72" x="68"/>
		<rect height="10" width="20" y="28" x="49"/>
		<rect height="10" width="20" y="58" x="49"/>
		<rect height="10" width="20" y="88" x="49"/>
		<rect height="10" width="40" y="10" x="106"/>
		<rect height="10" width="40" y="40" x="106"/>
		<rect height="10" width="40" y="70" x="106"/>
		<g fill-opacity="0.1" fill="#fffbc6">
			<rect height="30" width="58" y="10" x="30"/>
			<rect height="30" width="58" y="40" x="30"/>
			<rect height="30" width="58" y="70" x="30"/>
		</g>
	</g>
	<g stroke="#8c85ee" fill="none">
		<g stroke-dasharray="2.5,1,1,1,1,1">
			<line y2="28" x2="59" y1="18" x1="59"/>
			<line y2="58" x2="59" y1="48" x1="59"/>
			<line y2="88" x2="59" y1="78" x1="59"/>
		</g>
		<g stroke-dasharray="5,2,2,2,2,2">
			<line y2="15" x2="106" y1="15" x1="86"/>
			<line y2="45" x2="106" y1="45" x1="86"/>
			<line y2="75" x2="106" y1="75" x1="86"/>
		</g>
	</g>
	<g font-family="'Cascadia Mono', 'Consolas', 'Courier New', monospace" font-size="4" stroke="none" fill="#ee858c">
		<text y="16.5" x="13">int</text>
		<text y="46.5" x="13">int</text>
		<text y="76.5" x="13">int</text>
		<text y="16.5" x="33">int</text>
		<text y="46.5" x="33">int</text>
		<text y="76.5" x="33">int</text>
		<text y="34.5" x="51">void ()</text>
		<text y="64.5" x="51">void ()</text>
		<text y="94.5" x="51">void ()</text>
		<text y="16.5" x="108">BasicThread</text>
		<text y="46.5" x="108">BasicThread</text>
		<text y="76.5" x="108">BasicThread</text>
		<text y="7" x="10">map</text>
		<text y="36.5" x="33">plan</text>
		<text y="66.5" x="33">plan</text>
		<text y="96.5" x="33">plan</text>
	</g>
</svg>