<svg xmlns="http://www.w3.org/2000/svg" width="156" height="110">
	<rect stroke="#8c85ee" height="30" width="20" y="10" x="10" fill="none"/>
	<rect stroke="#8c85ee" height="30" width="20" y="40" x="10" fill="none"/>
	<rect stroke="#8c85ee" height="30" width="20" y="70" x="10" fill="none"/>
	<rect fill-opacity="0.1" stroke="#8c85ee" height="30" width="58" y="10" x="30" fill="#fffbc6"/>
	<rect fill-opacity="0.1" stroke="#8c85ee" height="30" width="58" y="40" x="30" fill="#fffbc6"/>
	<rect fill-opacity="0.1" stroke="#8c85ee" height="30" width="58" y="70" x="30" fill="#fffbc6"/>
	<rect stroke="#8c85ee" height="6" width="18" y="12" x="32" fill="none"/>
	<rect stroke="#8c85ee" height="6" width="18" y="42" x="32" fill="none"/>
	<rect stroke="#8c85ee" height="6" width="18" y="72" x="32" fill="none"/>
	<rect stroke="#8c85ee" height="6" width="18" y="12" x="50" fill="none"/>
	<rect stroke="#8c85ee" height="6" width="18" y="42" x="50" fill="none"/>
	<rect stroke="#8c85ee" height="6" width="18" y="72" x="50" fill="none"/>
	<rect stroke="#8c85ee" height="6" width="18" y="12" x="68" fill="none"/>
	<rect stroke="#8c85ee" height="6" width="18" y="42" x="68" fill="none"/>
	<rect stroke="#8c85ee" height="6" width="18" y="72" x="68" fill="none"/>
	<rect stroke="#8c85ee" height="10" width="20" y="28" x="49" fill="none"/>
	<rect stroke="#8c85ee" height="10" width="20" y="58" x="49" fill="none"/>
	<rect stroke="#8c85ee" height="10" width="20" y="88" x="49" fill="none"/>
	<rect stroke="#8c85ee" height="10" width="40" y="10" x="106" fill="none"/>
	<rect stroke="#8c85ee" height="10" width="40" y="40" x="106" fill="none"/>
	<rect stroke="#8c85ee" height="10" width="40" y="70" x="106" fill="none"/>
	<line y2="28" x2="59" y1="18" x1="59" stroke-dasharray="2.5,1,1,1,1,1" stroke="#8c85ee" fill="none"/>
	<line y2="58" x2="59" y1="48" x1="59" stroke-dasharray="2.5,1,1,1,1,1" stroke="#8c85ee" fill="none"/>
	<line y2="88" x2="59" y1="78" x1="59" stroke-dasharray="2.5,1,1,1,1,1" stroke="#8c85ee" fill="none"/>
	<line y2="15" x2="106" y1="15" x1="86" stroke-dasharray="5,2,2,2,2,2" stroke="#8c85ee" fill="none"/>
	<line y2="45" x2="106" y1="45" x1="86" stroke-dasharray="5,2,2,2,2,2" stroke="#8c85ee" fill="none"/>
	<line y2="75" x2="106" y1="75" x1="86" stroke-dasharray="5,2,2,2,2,2" stroke="#8c85ee" fill="none"/>
	<text font-family="'Cascadia Mono', 'Consolas', 'Courier New', monospace" font-size="4" y="16.5" x="13" stroke-width="0" stroke="none" fill="#ee858c">int</text>
	<text font-family="'Cascadia Mono', 'Consolas', 'Courier New', monospace" font-size="4" y="46.5" x="13" stroke-width="0" stroke="none" fill="#ee858c">int</text>
	<text font-family="'Cascadia Mono', 'Consolas', 'Courier New', monospace" font-size="4" y="76.5" x="13" stroke-width="0" stroke="none" fill="#ee858c">int</text>
	<text font-family="'Cascadia Mono', 'Consolas', 'Courier New', monospace" font-size="4" y="16.5" x="33" stroke-width="0" stroke="none" fill="#ee858c">int</text>
	<text font-family="'Cascadia Mono', 'Consolas', 'Courier New', monospace" font-size="4" y="46.5" x="33" stroke-width="0" stroke="none" fill="#ee858c">int</text>
	<text font-family="'Cascadia Mono', 'Consolas', 'Courier New', monospace" font-size="4" y="76.5" x="33" stroke-width="0" stroke="none" fill="#ee858c">int</text>
	<text font-family="'Cascadia Mono', 'Consolas', 'Courier New', monospace" font-size="4" y="34.5" x="51" stroke-width="0" stroke="none" fill="#ee858c">void ()</text>
	<text font-family="'Cascadia Mono', 'Consolas', 'Courier New', monospace" font-size="4" y="64.5" x="51" stroke-width="0" stroke="none" fill="#ee858c">void ()</text>
	<text font-family="'Cascadia Mono', 'Consolas', 'Courier New', monospace" font-size="4" y="94.5" x="51" stroke-width="0" stroke="none" fill="#ee858c">void ()</text>
	<text font-family="'Cascadia Mono', 'Consolas', 'Courier New', monospace" font-size="4" y="16.5" x="108" stroke-width="0" stroke="none" fill="#ee858c">BasicThread</text>
	<text font-family="'Cascadia Mono', 'Consolas', 'Courier New', monospace" font-size="4" y="46.5" x="108" stroke-width="0" stroke="none" fill="#ee858c">BasicThread</text>
	<text font-family="'Cascadia Mono', 'Consolas', 'Courier New', monospace" font-size="4" y="76.5" x="108" stroke-width="0" stroke="none" fill="#ee858c">BasicThread</text>
	<text font-family="'Cascadia Mono', 'Consolas', 'Courier New', monospace" font-size="4" y="7" x="10" stroke-width="0" stroke="none" fill="#ee858c">map</text>
	<text font-family="'Cascadia Mono', 'Consolas', 'Courier New', monospace" font-size="4" y="36.5" x="33" stroke-width="0" stroke="none" fill="#ee858c">plan</text>
	<text font-family="'Cascadia Mono', 'Consolas', 'Courier New', monospace" font-size="4" y="66.5" x="33" stroke-width="0" stroke="none" fill="#ee858c">plan</text>
	<text font-family="'Cascadia Mono', 'Consolas', 'Courier New', monospace" font-size="4" y="96.5" x="33" stroke-width="0" stroke="none" fill="#ee858c">plan</text>
</svg>