<svg xmlns="http://www.w3.org/2000/svg" width="120" height="50">
	<g stroke="#8c85ee" fill="none">
		<rect height="10" width="20" y="10" x="10"/>
		<rect height="10" width="20" y="20" x="10"/>
		<rect height="10" width="20" y="30" x="10"/>
		<rect height="10" width="20" y="10" x="30"/>
		<rect height="10" width="20" y="20" x="30"/>
		<rect height="10" width="20" y="30" x="30"/>
		<rect height="10" width="40" y="10" x="70"/>
		<rect height="10" width="40" y="20" x="70"/>
		<rect height="10" width="40" y="30" x="70"/>
	</g>
	<g stroke="#8c85ee" fill="none">
		<g stroke-dasharray="5,2,2,2,2,2">
			<line y2="15" x2="70" y1="15" x1="50"/>
			<line y2="25" x2="70" y1="25" x1="50"/>
			<line y2="35" x2="70" y1="35" x1="50"/>
		</g>
	</g>
	<g font-family="'Cascadia Mono', 'Consolas', 'Courier New', monospace" font-size="4" stroke="none" fill="#ee858c">
		<text y="16.5" x="13">string</text>
		<text y="26.5" x="13">string</text>
		<text y="36.5" x="13">string</text>
		<text y="16.5" x="73">BasicThread</text>
		<text y="26.5" x="73">BasicThread</text>
		<text y="36.5" x="73">BasicThread</text>
		<text y="7" x="10">unordered_map</text>
	</g>
</svg>