<svg xmlns="http://www.w3.org/2000/svg" width="120" height="50">
	<rect stroke="#8c85ee" height="10" width="20" y="10" x="10" fill="none"/>
	<rect stroke="#8c85ee" height="10" width="20" y="20" x="10" fill="none"/>
	<rect stroke="#8c85ee" height="10" width="20" y="30" x="10" fill="none"/>
	<rect stroke="#8c85ee" height="10" width="20" y="10" x="30" fill="none"/>
	<rect stroke="#8c85ee" height="10" width="20" y="20" x="30" fill="none"/>
	<rect stroke="#8c85ee" height="10" width="20" y="30" x="30" fill="none"/>
	<rect stroke="#8c85ee" height="10" width="40" y="10" x="70" fill="none"/>
	<rect stroke="#8c85ee" height="10" width="40" y="20" x="70" fill="none"/>
	<rect stroke="#8c85ee" height="10" width="40" y="30" x="70" fill="none"/>
	<line y2="15" x2="70" y1="15" x1="50" stroke-dasharray="5,2,2,2,2,2" stroke="#8c85ee" fill="none"/>
	<line y2="25" x2="70" y1="25" x1="50" stroke-dasharray="5,2,2,2,2,2" stroke="#8c85ee" fill="none"/>
	<line y2="35" x2="70" y1="35" x1="50" stroke-dasharray="5,2,2,2,2,2" stroke="#8c85ee" fill="none"/>
	<text font-family="'Cascadia Mono', 'Consolas', 'Courier New', monospace" font-size="4" y="16.5" x="13" stroke-width="0" stroke="none" fill="#ee858c">string</text>
	<text font-family="'Cascadia Mono', 'Consolas', 'Courier New', monospace" font-size="4" y="26.5" x="13" stroke-width="0" stroke="none" fill="#ee858c">string</text>
	<text font-family="'Cascadia Mono', 'Consolas', 'Courier New', monospace" font-size="4" y="36.5" x="13" stroke-width="0" stroke="none" fill="#ee858c">string</text>
	<text font-family="'Cascadia Mono', 'Consolas', 'Courier New', monospace" font-size="4" y="16.5" x="73" stroke-width="0" stroke="none" fill="#ee858c">BasicThread</text>
	<text font-family="'Cascadia Mono', 'Consolas', 'Courier New', monospace" font-size="4" y="26.5" x="73" stroke-width="0" stroke="none" fill="#ee858c">BasicThread</text>
	<text font-family="'Cascadia Mono', 'Consolas', 'Courier New', monospace" font-size="4" y="36.5" x="73" stroke-width="0" stroke="none" fill="#ee858c">BasicThread</text>
	<text font-family="'Cascadia Mono', 'Consolas', 'Courier New', monospace" font-size="4" y="7" x="10" stroke-width="0" stroke="none" fill="#ee858c">unordered_map</text>
</svg>